<svg 
    id="Layer_1" 
    data-name="Layer 1" 
    xmlns="http://www.w3.org/2000/svg" 
    viewBox="0 0 512 512"
    width="30"
    height="30"   
>
  
    <defs>
        <style>.cls-1{fill:#6d4135;}.cls-2{fill:#ffd38d;}.cls-3{opacity:0.1;}</style>
    </defs>
    <title>volume-muted-flat</title>
        <path class="cls-1" d="M452,255.9l53.2-53.2a23.27,23.27,0,1,0-32.91-32.91L419,223,365.58,169.7a23.28,23.28,0,1,0-32.89,33l53.41,53.29-53.39,53.38a23.27,23.27,0,1,0,32.91,32.91l53.42-53.42,52.86,52.75a23.28,23.28,0,0,0,32.89-33Z"/>
        <path class="cls-2" d="M256,93.07V418.93a23.2,23.2,0,0,1-13.15,20.95,24.27,24.27,0,0,1-10.12,2.33,23.12,23.12,0,0,1-14.55-5.12l-101.83-88H69.83A69.88,69.88,0,0,1,0,279.28V232.73A69.88,69.88,0,0,1,69.83,162.9h46.55l101.83-88A23.27,23.27,0,0,1,256,93.07Z"/>
    <g class="cls-3">
        <path d="M256,93.07V418.93a23.2,23.2,0,0,1-13.15,20.95,24.27,24.27,0,0,1-10.12,2.33,23.12,23.12,0,0,1-14.55-5.12l-101.83-88V162.9l101.83-88A23.27,23.27,0,0,1,256,93.07Z"/>
    </g>
</svg>